# xmcd CD database file
#
# Track frame offsets:
#	150
#	13160
#	24815
#	37073
#	52544
#	64042
#	78579
#	95523
#	109051
#	124575
#	138165
#	150819
#	167305
#
# Disc length: 2369 seconds
#
# Revision: 8
# Processed by: cddbd v1.5.2PL0 Copyright (c) Steve Scherf et al.
# Submitted via: CDex 2.21
#
DISCID=8b093f0d
DTITLE=Charley Pride - Music in My Heart
DYEAR=2017
DGENRE=Country
TTITLE0=New Patches
TTITLE1=Make Me One More Memory
TTITLE2=Natural Feeling for You
TTITLE3=All by My Lonesome
TTITLE4=It Wasn't That Funny
TTITLE5=The Same Eyes That Always Drove Me Crazy
TTITLE6=I Learned a Lot
TTITLE7=You're Still in These Crazy Arms of mine
TTITLE8=The Way It Was in `51
TTITLE9=I Just Can't Stop Missing You
TTITLE10=You Lied to Me
TTITLE11=Standing in My Way
TTITLE12=Music in My Heart
EXTD=YEAR: 2017
EXTT0=
EXTT1=
EXTT2=
EXTT3=
EXTT4=
EXTT5=
EXTT6=
EXTT7=
EXTT8=
EXTT9=
EXTT10=
EXTT11=
EXTT12=
PLAYORDER=
